<svg width="93" height="22" viewBox="0 0 93 22" fill="none" xmlns="http://www.w3.org/2000/svg">
<path d="M20.4909 3.07165C20.3804 1.98264 19.9429 1.76315 19.0933 1.76315H15.474C14.6797 1.76315 14.4885 1.89822 14.1869 2.77196L11.4725 11.598L8.75804 2.77196C8.45644 1.89822 8.26528 1.76315 7.47092 1.76315H3.84742C2.99783 1.76315 2.56029 1.98264 2.44985 3.07165L0.529778 20.3986C0.449067 21.0233 0.50429 21.2724 1.05227 21.3526L5.19402 21.952C5.82271 22.0322 5.9629 21.8971 6.04361 21.4328L6.94842 13.3159L8.89398 20.9178C9.08513 21.5425 9.33151 21.7916 9.96446 21.7916H12.9805C13.6092 21.7916 13.8598 21.5467 14.051 20.9178L15.971 13.3159L16.9013 21.4328C16.9821 21.8971 17.1222 22.0322 17.7509 21.952L21.8927 21.3526C22.4407 21.2724 22.4959 21.0276 22.4152 20.3986L20.4909 3.07165Z" fill="#103559"/>
<path d="M30.4634 6.39474C25.8152 6.39474 23.2891 9.58064 23.2891 13.9737C23.2891 18.3667 25.8152 21.5526 30.4634 21.5526C35.1115 21.5526 37.6377 18.3667 37.6377 13.9737C37.6377 9.58064 35.1115 6.39474 30.4634 6.39474ZM30.4634 16.5954C29.3477 16.5954 28.7498 15.55 28.7498 13.9695C28.7498 12.389 29.3477 11.3437 30.4634 11.3437C31.5791 11.3437 32.177 12.389 32.177 13.9695C32.177 15.55 31.5791 16.5954 30.4634 16.5954Z" fill="#103559"/>
<path d="M48.0615 6.40316C47.1086 6.40316 39.9792 6.59247 39.5154 7.24456C39.3257 7.46333 39.3257 7.76203 39.3257 8.27528L39.5449 20.1138C39.5702 21.1993 39.819 21.5526 40.7676 21.5526H44.0899C45.0427 21.5526 45.3126 21.1993 45.3126 20.1138V11.9396C45.7215 11.805 45.8564 11.7503 46.3202 11.7208C46.9442 11.6956 47.2435 11.8849 47.4375 12.3982C47.5724 12.9409 47.6019 13.757 47.6019 14.8677L47.5766 20.1096C47.5766 21.195 47.876 21.5484 48.8288 21.5484H52.2312C53.1841 21.5484 53.4286 21.195 53.4539 20.1096L53.6731 12.8862C53.6984 11.1192 53.319 9.49111 52.4209 8.29632C51.4681 7.10152 50.0515 6.39474 48.0657 6.39474L48.0615 6.40316Z" fill="#103559"/>
<path d="M60.8313 8.07895H57.4114C56.4757 8.07895 56.2065 8.40165 56.2065 9.48708V20.1194C56.2065 21.2006 56.4757 21.5526 57.4114 21.5526H60.8851C61.8208 21.5526 62.1148 21.2006 62.1148 20.1194L62.061 9.48708C62.061 8.43098 61.767 8.07895 60.8313 8.07895Z" fill="#103559"/>
<path d="M59.3717 0.921051C57.3462 0.921051 56.2065 2.16833 56.2065 3.86842C56.2065 5.56851 57.3462 6.81579 59.3717 6.81579C61.3972 6.81579 62.5368 5.56851 62.5368 3.86842C62.5368 2.16833 61.3972 0.921051 59.3717 0.921051Z" fill="#103559"/>
<path d="M74.0577 6.83575H71.954V3.17524C71.954 2.09096 71.6756 1.76315 70.7116 1.76315H67.4468C66.4785 1.76315 66.1743 2.11618 66.1743 3.17524V6.83575H64.5162C63.6036 6.83575 63.3809 6.99965 63.3809 7.84018V10.7988C63.3809 11.6394 63.6036 11.8033 64.5162 11.8033H66.1743V16.9557C66.1743 20.4271 68.0252 21.9737 71.5127 21.9737C72.5367 21.9737 73.5607 21.8938 74.529 21.7005C74.9446 21.6207 75.056 21.5114 75.056 21.1037L74.9189 16.9515C74.9189 16.5985 74.7261 16.464 74.3662 16.5439C74.062 16.6237 73.7578 16.6783 73.3422 16.6783C72.541 16.6783 71.9583 16.4052 71.9583 15.241V11.7949H74.062C74.9746 11.7949 75.1974 11.631 75.1974 10.7904V7.83177C75.1974 6.99125 74.9746 6.82734 74.062 6.82734L74.0577 6.83575Z" fill="#103559"/>
<path d="M83.2158 6.39474C78.5677 6.39474 76.0415 9.58064 76.0415 13.9737C76.0415 18.3667 78.5677 21.5526 83.2158 21.5526C87.864 21.5526 90.3901 18.3667 90.3901 13.9737C90.3901 9.58064 87.864 6.39474 83.2158 6.39474ZM83.2158 16.5954C82.1001 16.5954 81.5022 15.55 81.5022 13.9695C81.5022 12.389 82.1001 11.3437 83.2158 11.3437C84.3315 11.3437 84.9294 12.389 84.9294 13.9695C84.9294 15.55 84.3315 16.5954 83.2158 16.5954Z" fill="#103559"/>
<path d="M91.7242 6.98837C91.2365 6.63657 90.4378 6.83983 89.9334 7.4418C89.4289 8.04377 89.4163 8.81774 89.8997 9.16954C90.3874 9.52134 91.1861 9.31808 91.6905 8.71611C92.195 8.11413 92.2076 7.34017 91.7242 6.98837Z" fill="#103559"/>
<path d="M80.2483 5.96493C80.8215 5.87691 81.197 5.15177 81.0864 4.34281C80.9757 3.53384 80.4262 2.94702 79.853 3.03505C79.2798 3.12307 78.9043 3.84821 79.015 4.65717C79.1256 5.46614 79.6751 6.05296 80.2483 5.96493Z" fill="#103559"/>
<path d="M87.675 6.70874C88.4681 7.10905 89.6685 6.35194 90.352 5.01612C91.0355 3.6803 90.9478 2.27051 90.1505 1.8702C89.3575 1.46989 88.157 2.227 87.4735 3.56282C86.79 4.89864 86.8777 6.30843 87.675 6.70874Z" fill="#103559"/>
<path d="M83.5697 5.5458C84.3689 5.64752 85.1444 4.60073 85.2987 3.21067C85.453 1.81637 84.9307 0.608539 84.1276 0.506827C83.3284 0.405115 82.5529 1.4519 82.3986 2.84196C82.2443 4.23626 82.7665 5.44409 83.5697 5.5458Z" fill="#103559"/>
</svg>
