<svg width="30" height="30" viewBox="0 0 30 30" fill="none" xmlns="http://www.w3.org/2000/svg">
<g clip-path="url(#clip0_114_1600)">
<path d="M14.2387 9.23168L16.6665 8.87498C17.6106 8.73629 18.3322 7.96141 18.4034 7.00988L18.6653 3.51121C18.6934 3.13585 18.2945 2.87856 17.9641 3.05891L15.746 4.26985C14.9879 4.68371 14.4553 5.41556 14.2947 6.26416L13.8163 8.79135C13.7684 9.04437 13.984 9.26912 14.2387 9.23168Z" fill="#FFE07D"/>
<path d="M17.9644 3.05891L16.9092 3.63498L16.6599 6.96532C16.5887 7.91686 15.8671 8.69168 14.923 8.83043L13.8335 8.99053C13.8922 9.14878 14.0552 9.25868 14.2391 9.23163L16.6669 8.87488C17.6109 8.73619 18.3325 7.96131 18.4037 7.00977L18.6656 3.51111C18.6937 3.13585 18.2948 2.87856 17.9644 3.05891Z" fill="#FFD064"/>
<path d="M9.86708 18.955L11.4655 18.6187C11.8151 18.6589 12.0432 19.0055 11.9418 19.3425L11.513 20.7674L15.5039 26.3514H18.1576L28.1907 24.3855L22.5051 12.9789C21.6581 11.2795 20.6579 9.66068 19.5172 8.14267C17.7782 5.53427 14.257 4.8241 11.6429 6.55457L9.94945 7.67565C9.24661 8.14093 8.78697 8.89461 8.69501 9.73251L8.54276 11.12C8.48839 11.6158 8.14826 12.0336 7.6738 12.1876L4.61194 13.1808L3.98535 15.6554L4.16744 16.0343C4.72015 17.1843 5.8243 17.9703 7.09193 18.116L8.15395 18.2381C8.20004 18.2434 8.24249 18.2675 8.26838 18.306C8.61786 18.8258 9.24961 19.0849 9.86708 18.955Z" fill="#FFD064"/>
<path d="M22.5051 12.9789C21.658 11.2795 20.6579 9.66068 19.5171 8.14267C18.0293 5.91101 15.2369 5.0691 12.8242 5.9562C13.9209 6.35682 14.9045 7.09705 15.6016 8.14267C16.7424 9.66068 17.7425 11.2795 18.5896 12.9789L25.0089 25.8577L28.1906 24.3855L22.5051 12.9789Z" fill="#FFC250"/>
<path d="M22.6744 16.383L22.7189 15.7946C22.7861 14.9051 22.4196 14.0378 21.7349 13.466L19.7162 11.7803C19.4749 11.5788 19.1133 11.7869 19.1664 12.0968L19.6364 14.8414C19.6759 15.0721 19.8118 15.275 20.0102 15.3992L22.0693 16.6888C22.3218 16.847 22.652 16.6802 22.6744 16.383Z" fill="#4A80AA"/>
<path d="M21.7349 13.466L19.7162 11.7803C19.4749 11.5788 19.1133 11.7869 19.1664 12.0968L19.3122 12.9486L20.0993 13.6059C20.784 14.1777 21.1505 15.0449 21.0833 15.9345L21.0734 16.0651L22.0692 16.6888C22.3218 16.847 22.652 16.6801 22.6744 16.383L22.7189 15.7946C22.7861 14.905 22.4196 14.0378 21.7349 13.466Z" fill="#407093"/>
<path d="M16.3881 20.6197C16.6839 20.9167 17.0468 21.1382 17.4462 21.2656C17.5014 21.2832 17.5456 21.3249 17.5662 21.3791L17.7369 21.8268C17.8552 22.1368 18.1724 22.3358 18.4997 22.2818C18.5163 22.2791 18.5328 22.2758 18.5492 22.2719L19.4508 22.0621C19.8146 21.9774 20.0855 22.3935 19.8608 22.6919L18.93 23.9284C18.4016 24.6303 18.1338 25.4858 18.1575 26.3513H29.1628C29.3463 26.3513 29.4775 26.1728 29.4211 25.9983C29.3062 25.6426 29.2198 25.278 29.1635 24.9077L28.6712 21.67C28.4796 20.4099 27.9462 19.2265 27.1289 18.2484L24.9998 15.7002C24.2934 14.8547 23.3175 14.2779 22.236 14.0667L22.1227 14.0446C20.7089 13.7685 19.2459 14.1419 18.1374 15.0618L17.66 15.4579C16.9697 16.0307 16.6574 16.9411 16.8508 17.8169L17.0084 18.5308L16.0898 19.5422L16.1253 20.3557L16.3881 20.6197Z" fill="#407093"/>
<path d="M10.712 13.1504C11.0976 13.1504 11.4103 12.8378 11.4103 12.4521C11.4103 12.0664 11.0976 11.7538 10.712 11.7538C10.3263 11.7538 10.0137 12.0664 10.0137 12.4521C10.0137 12.8378 10.3263 13.1504 10.712 13.1504Z" fill="#707DD3"/>
<path d="M3.69712 15.0555L3.98537 15.6553L4.13688 15.2521C4.23475 14.9916 4.48793 14.8226 4.766 14.8322L5.48165 14.8569C5.76821 14.8668 5.92051 14.5223 5.72028 14.317L4.61191 13.1807L4.48186 13.2229C3.71938 13.4702 3.34987 14.333 3.69712 15.0555Z" fill="#407093"/>
<path d="M5.72051 14.317L4.61213 13.1807L4.48209 13.2229C4.2276 13.3054 4.01719 13.4568 3.8623 13.6484L4.78827 14.5977C4.8573 14.6685 4.89168 14.7525 4.89927 14.8368L5.48188 14.8569C5.76844 14.8668 5.92074 14.5222 5.72051 14.317Z" fill="#365E7D"/>
<path d="M7.7724 15.9745C8.02531 15.9745 8.23034 15.7695 8.23034 15.5165C8.23034 15.2636 8.02531 15.0586 7.7724 15.0586C7.51948 15.0586 7.31445 15.2636 7.31445 15.5165C7.31445 15.7695 7.51948 15.9745 7.7724 15.9745Z" fill="#FFC250"/>
<path d="M9.54242 15.9745C9.79533 15.9745 10.0004 15.7695 10.0004 15.5165C10.0004 15.2636 9.79533 15.0586 9.54242 15.0586C9.2895 15.0586 9.08447 15.2636 9.08447 15.5165C9.08447 15.7695 9.2895 15.9745 9.54242 15.9745Z" fill="#FFC250"/>
<path d="M8.79828 17.246C9.05119 17.246 9.25622 17.0409 9.25622 16.788C9.25622 16.5351 9.05119 16.3301 8.79828 16.3301C8.54536 16.3301 8.34033 16.5351 8.34033 16.788C8.34033 17.0409 8.54536 17.246 8.79828 17.246Z" fill="#FFC250"/>
<path d="M19.0103 19.1798C19.3688 19.1798 19.6593 18.8893 19.6593 18.5308C19.6593 18.1724 19.3688 17.8818 19.0103 17.8818C18.6519 17.8818 18.3613 18.1724 18.3613 18.5308C18.3613 18.8893 18.6519 19.1798 19.0103 19.1798Z" fill="#95D6A4"/>
<path d="M16.6436 19.5013L16.0899 19.5423L16.0333 19.6047C15.8764 19.7774 15.861 20.0359 15.996 20.226L16.1253 20.3558L16.7037 20.3129C16.9278 20.2963 17.0961 20.1012 17.0795 19.877C17.0629 19.653 16.868 19.4852 16.6436 19.5013Z" fill="#E28086"/>
<path d="M16.2497 9.65151L17.3003 9.70282L19.0545 9.47479C19.0545 9.47479 19.8548 9.56882 20.2519 9.16651C20.4901 8.92514 20.6703 8.62229 20.7656 8.27741L21.6994 4.89555C21.7996 4.53274 21.458 4.20315 21.099 4.31616L18.6884 5.07506C17.8646 5.33441 17.2005 5.94945 16.8787 6.7509L15.9204 9.13782C15.8244 9.37671 15.9925 9.63896 16.2497 9.65151Z" fill="#FFE07D"/>
<path d="M21.0989 4.31617L19.685 4.7613C19.6856 4.80502 19.68 4.85 19.6674 4.89557L18.7336 8.27742C18.5375 8.98723 17.9818 9.51853 17.3003 9.70283L18.7006 9.77123C19.6537 9.81779 20.5115 9.19716 20.7655 8.27742L21.6993 4.89557C21.7995 4.53275 21.4579 4.20311 21.0989 4.31617Z" fill="#FFD064"/>
<path d="M19.7799 14.9067L19.8933 14.9289C20.9747 15.1401 21.9505 15.7168 22.6571 16.5624L24.7862 19.1106C25.6035 20.0887 26.1369 21.2721 26.3285 22.5322L26.8208 25.7699C26.8506 25.9656 26.8894 26.1595 26.9356 26.3515H29.163C29.3465 26.3515 29.4777 26.173 29.4213 25.9985C29.3064 25.6428 29.22 25.2782 29.1637 24.9079L28.6714 21.6702C28.4798 20.4101 27.9463 19.2267 27.1291 18.2486L25 15.7004C24.2935 14.8548 23.3176 14.2781 22.2361 14.0669L22.1229 14.0448C20.8306 13.7925 19.4974 14.083 18.4312 14.8372C18.8771 14.7972 19.331 14.819 19.7799 14.9067Z" fill="#365E7D"/>
<path d="M24.0776 16.2973C24.0776 16.2973 24.6638 15.7126 24.6925 15.3657C24.7353 14.8473 24.6316 14.32 24.382 13.8474L23.1535 11.5219C23.0067 11.244 22.5932 11.2994 22.5247 11.6062L21.9186 14.3241C21.8677 14.5525 21.9166 14.7917 22.0529 14.9819L23.0499 16.3718L24.0776 16.2973Z" fill="#4A80AA"/>
<path d="M24.3819 13.8475L23.1534 11.522C23.0066 11.2441 22.5931 11.2996 22.5246 11.6064L22.3027 12.6014L22.9929 13.9079C23.3986 14.6759 23.4178 15.5882 23.0498 16.372L23.4689 16.9563C23.6426 17.1985 24.0114 17.1693 24.1449 16.9029L24.4092 16.3753C24.8087 15.5777 24.7985 14.6363 24.3819 13.8475Z" fill="#407093"/>
<path d="M24.8913 30C26.6505 30 28.0766 28.5739 28.0766 26.8148C28.0766 25.0556 26.6505 23.6295 24.8913 23.6295C23.1321 23.6295 21.7061 25.0556 21.7061 26.8148C21.7061 28.5739 23.1321 30 24.8913 30Z" fill="#B3E59F"/>
<path d="M26.7593 24.2352C27.1399 24.76 27.365 25.405 27.365 26.103C27.365 27.8621 25.9389 29.2882 24.1798 29.2882C23.4818 29.2882 22.8368 29.0632 22.312 28.6825C22.8908 29.4806 23.8303 30 24.8915 30C26.6507 30 28.0768 28.5739 28.0768 26.8148C28.0768 25.7535 27.5573 24.8141 26.7593 24.2352Z" fill="#95D6A4"/>
<path d="M24.5334 28.0129C24.4255 28.0129 24.3219 27.97 24.2456 27.8937L23.4346 27.0827C23.2757 26.9238 23.2757 26.6661 23.4346 26.5072C23.5935 26.3483 23.8512 26.3483 24.0101 26.5072L24.5334 27.0305L25.8694 25.6943C26.0283 25.5355 26.286 25.5355 26.4449 25.6943C26.6039 25.8533 26.6039 26.1109 26.4449 26.2699L24.8211 27.8937C24.7448 27.97 24.6413 28.0129 24.5334 28.0129Z" fill="#F2FBFF"/>
<path d="M15.7813 25.4157C15.9113 24.9771 15.5826 24.5369 15.1251 24.5369C14.6753 24.5369 14.3478 24.1105 14.4639 23.676L14.5077 23.5121C14.6237 23.0776 14.2962 22.6512 13.8465 22.6512H13.7548C13.3175 22.6512 12.9924 22.2466 13.0865 21.8196L13.1351 21.5991C13.2292 21.172 12.904 20.7675 12.4667 20.7675H11.513L10.759 23.2733C10.539 24.0044 10.4272 24.7637 10.4272 25.5272V26.0802C10.4272 26.23 10.5487 26.3515 10.6986 26.3515H15.504L15.7813 25.4157Z" fill="#F9F6F6"/>
<path d="M22.7038 19.9415L24.0879 20.1321C24.3105 20.1626 24.5159 20.0071 24.5465 19.7844C24.5772 19.5618 24.4216 19.3564 24.1989 19.3258L22.8148 19.1352C22.0455 19.0292 21.273 19.1587 20.5789 19.5103L19.7247 19.9473C19.5555 20.034 19.4515 20.2127 19.46 20.4028C19.4684 20.5928 19.5878 20.7617 19.7643 20.8331L20.7136 21.2166C21.1251 21.3789 21.491 21.6453 21.7715 21.9872L22.2445 22.5637C22.325 22.6618 22.4417 22.7126 22.5594 22.7126C22.6502 22.7126 22.7416 22.6823 22.8173 22.6202C22.9911 22.4777 23.0164 22.2213 22.8738 22.0475L22.4008 21.471C22.2138 21.2431 21.9978 21.0409 21.7604 20.8692C22.0835 20.9409 22.3942 21.0648 22.6797 21.2383L23.8934 21.9757C23.9595 22.0159 24.0324 22.0349 24.1044 22.0349C24.2419 22.0349 24.376 21.9653 24.4526 21.8392C24.5693 21.6471 24.5082 21.3968 24.3161 21.2801L23.1024 20.5427C22.627 20.2539 22.0965 20.0729 21.5476 20.0091C21.9223 19.9116 22.3135 19.8878 22.7038 19.9415Z" fill="#4A80AA"/>
</g>
<defs>
<clipPath id="clip0_114_1600">
<rect width="27" height="27" fill="white" transform="translate(3 3)"/>
</clipPath>
</defs>
</svg>
